<?xml version="1.0" standalone="no"?>
<!DOCTYPE svg PUBLIC "-//W3C//DTD SVG 20010904//EN"
 "http://www.w3.org/TR/2001/REC-SVG-20010904/DTD/svg10.dtd">
<svg version="1.0" xmlns="http://www.w3.org/2000/svg"
 width="300.000000pt" height="300.000000pt" viewBox="0 0 300.000000 300.000000"
 preserveAspectRatio="xMidYMid meet">
<metadata>
Created by potrace 1.10, written by Peter Selinger 2001-2011
</metadata>
<g transform="translate(0.000000,300.000000) scale(0.100000,-0.100000)"
fill="#000000" stroke="none">
<path d="M1400 2433 c-53 -9 -158 -46 -220 -79 -324 -170 -476 -555 -354 -896
14 -40 29 -76 33 -80 10 -11 217 28 306 57 115 38 289 126 370 188 128 97 212
236 236 388 15 98 -6 220 -49 287 -10 15 -11 22 -2 22 21 0 161 -69 198 -98
l37 -29 43 33 42 33 -52 40 c-125 94 -280 142 -452 140 -61 -1 -122 -4 -136
-6z m335 -47 c69 -19 198 -81 220 -106 14 -16 14 -18 -1 -24 -11 -4 -33 4 -58
21 -50 34 -99 54 -148 60 -45 6 -62 -17 -48 -66 5 -17 6 -31 2 -31 -4 0 -1 -4
6 -9 7 -4 15 -20 16 -33 3 -24 1 -25 -25 -16 -24 8 -27 14 -23 36 4 21 -2 34
-26 60 -40 39 -49 40 -84 3 -30 -31 -39 -59 -24 -78 6 -7 -1 -18 -22 -33 -34
-24 -38 -45 -13 -72 20 -22 31 -23 55 -1 19 17 25 63 8 63 -5 0 -10 4 -10 9 0
6 12 3 28 -5 24 -12 28 -12 38 1 6 8 17 15 25 15 10 -1 9 -3 -3 -10 -19 -12
-18 -27 5 -60 15 -22 20 -23 46 -13 37 14 41 10 41 -40 0 -57 -35 -168 -75
-235 -36 -62 -130 -162 -152 -162 -7 0 -13 -8 -13 -17 0 -9 -3 -13 -6 -10 -4
4 -24 -7 -45 -24 -22 -17 -39 -28 -39 -24 0 3 -12 -2 -27 -13 -16 -11 -47 -29
-70 -41 -38 -19 -43 -19 -57 -5 -9 8 -16 19 -16 23 0 4 -12 13 -26 20 -23 10
-30 9 -50 -10 -25 -23 -31 -53 -14 -64 6 -3 10 -11 10 -16 0 -6 -4 -7 -10 -4
-5 3 -10 2 -10 -2 0 -21 -232 -62 -256 -46 -26 18 -56 147 -60 254 -3 104 17
224 45 276 5 10 18 37 27 61 10 23 21 42 26 42 4 0 8 4 8 10 0 26 109 148 185
206 51 39 184 100 261 118 78 19 278 15 359 -8z m-77 -146 c12 -1 9 -5 -9 -15
-15 -8 -29 -21 -32 -29 -5 -12 -12 -9 -34 11 l-29 26 26 26 25 26 18 -22 c10
-13 26 -23 35 -23z m47 -90 c4 -6 1 -18 -6 -26 -11 -13 -14 -13 -27 0 -8 8
-11 19 -8 25 9 14 33 14 41 1z m-147 -23 c2 -11 -3 -17 -17 -17 -23 0 -35 15
-26 31 10 15 39 6 43 -14z m-338 -606 c0 -24 -25 -34 -40 -16 -15 18 -5 35 21
35 12 0 19 -7 19 -19z"/>
<path d="M1447 2332 c-22 -25 -21 -44 3 -65 25 -22 33 -21 53 1 21 23 22 46 1
66 -20 21 -37 20 -57 -2z m49 -41 c-9 -14 -33 -14 -41 -1 -4 6 -1 18 6 26 11
13 14 13 27 0 8 -8 11 -19 8 -25z"/>
<path d="M1285 2266 c-27 -28 -25 -53 10 -86 19 -18 26 -19 47 -9 29 13 50 51
42 73 -6 17 -48 46 -64 46 -6 0 -22 -11 -35 -24z m70 -26 c20 0 19 -5 -9 -34
l-25 -24 -15 23 c-13 20 -13 25 1 45 14 20 17 21 25 6 5 -9 16 -16 23 -16z"/>
<path d="M1117 2212 c-22 -24 -21 -45 1 -65 24 -22 55 -22 74 1 17 20 17 29 0
60 -15 27 -53 29 -75 4z m53 -18 c11 -12 10 -18 -4 -32 -16 -16 -18 -16 -31 2
-11 14 -12 23 -4 33 15 17 24 16 39 -3z"/>
<path d="M1221 2151 c-30 -23 -33 -51 -8 -78 25 -28 37 -29 71 -2 30 24 33 43
9 68 -27 27 -47 31 -72 12z m43 -17 c21 -8 21 -43 0 -51 -8 -3 -23 1 -31 10
-13 13 -14 19 -3 31 14 18 13 18 34 10z"/>
<path d="M1383 2103 c-10 -16 -32 -41 -50 -57 -18 -16 -33 -34 -33 -41 0 -7
27 -40 61 -74 57 -57 79 -72 79 -53 0 4 20 28 45 53 76 74 76 74 5 141 -34 32
-69 58 -76 58 -7 0 -21 -12 -31 -27z m71 -56 c8 -11 31 -25 52 -32 l37 -12
-35 -12 c-41 -14 -61 -34 -76 -76 -9 -27 -10 -28 -17 -10 -19 56 -28 67 -67
84 l-42 18 29 7 c40 10 62 31 76 75 l12 36 9 -30 c4 -16 15 -38 22 -48z"/>
<path d="M1050 2095 c-28 -30 -21 -70 15 -87 14 -6 25 -19 25 -28 0 -16 -8
-26 -80 -91 l-34 -32 49 -44 c28 -25 40 -39 28 -33 -28 13 -59 -1 -68 -31 -5
-15 0 -28 17 -46 l24 -24 28 22 c18 14 26 28 23 40 -3 11 -1 19 4 19 5 0 9 -5
9 -10 0 -6 11 -22 24 -35 30 -30 51 -24 72 18 15 28 30 45 88 94 14 13 26 29
26 37 0 8 -22 31 -49 51 -28 20 -53 46 -57 57 -8 26 -33 53 -40 45 -3 -3 -3
-20 1 -37 10 -46 60 -98 101 -106 39 -7 37 -19 -4 -27 -44 -9 -72 -38 -91 -95
l-18 -53 -12 44 c-12 49 -67 107 -101 107 -31 0 -32 17 -1 23 46 9 87 51 102
104 16 56 13 81 -9 106 -31 35 -48 38 -72 12z m56 -26 c3 -6 -1 -18 -10 -27
-15 -15 -17 -15 -32 0 -19 19 -11 38 16 38 10 0 22 -5 26 -11z m-59 -325 c7
-18 -17 -38 -31 -24 -11 11 -1 40 14 40 6 0 13 -7 17 -16z"/>
<path d="M1607 2002 c-24 -26 -21 -49 7 -67 20 -14 28 -14 45 -3 30 18 36 46
15 69 -22 24 -46 24 -67 1z m51 -30 c3 -16 -2 -22 -16 -22 -24 0 -35 23 -19
39 16 16 31 8 35 -17z"/>
<path d="M1542 1880 c-31 -29 -27 -55 9 -81 35 -25 55 -19 76 21 19 38 -10 79
-58 80 -3 0 -15 -9 -27 -20z m59 -26 c11 -14 10 -18 -6 -30 -16 -12 -21 -12
-33 0 -17 17 -9 46 11 46 8 0 21 -7 28 -16z"/>
<path d="M884 1845 l-25 -25 21 -30 c25 -34 22 -33 54 -19 36 17 43 58 14 81
-30 23 -34 23 -64 -7z m53 -21 c3 -8 1 -20 -5 -26 -15 -15 -43 8 -35 28 7 19
32 18 40 -2z"/>
<path d="M1362 1828 c-20 -20 -13 -46 18 -70 17 -12 30 -25 30 -28 0 -4 -20
-7 -44 -7 -37 0 -46 4 -55 24 -15 32 -47 29 -65 -6 -14 -26 -14 -30 3 -45 10
-9 23 -16 29 -16 7 0 22 -16 34 -35 39 -59 89 -58 114 2 13 30 18 34 42 29 29
-6 52 7 70 39 17 33 -20 85 -62 85 -20 0 -35 7 -44 20 -14 22 -51 27 -70 8z
m53 -28 c0 -8 -8 -16 -17 -18 -13 -2 -18 3 -18 18 0 15 5 20 18 18 9 -2 17
-10 17 -18z m93 -57 c4 -30 -31 -49 -52 -27 -19 19 -20 26 -4 42 19 19 53 10
56 -15z m-208 -18 c0 -8 -9 -15 -20 -15 -11 0 -20 7 -20 15 0 8 9 15 20 15 11
0 20 -7 20 -15z m98 -61 c3 -23 -18 -37 -43 -28 -16 6 -20 35 -8 48 14 14 48
1 51 -20z"/>
<path d="M882 1700 c-29 -24 -28 -54 2 -73 20 -14 26 -14 43 -2 11 8 22 12 25
10 10 -10 6 40 -4 53 -23 27 -43 31 -66 12z m45 -26 c8 -21 -13 -42 -28 -27
-13 13 -5 43 11 43 6 0 13 -7 17 -16z"/>
<path d="M1176 1665 c-23 -35 -20 -48 14 -68 29 -18 30 -18 55 7 30 30 31 40
5 66 -27 27 -54 25 -74 -5z m59 -25 c0 -8 -10 -16 -22 -18 -22 -3 -32 16 -16
32 12 11 38 2 38 -14z"/>
<path d="M990 1630 c-12 -12 -26 -18 -32 -14 -7 4 -8 3 -4 -4 4 -6 -2 -19 -14
-29 -11 -10 -20 -22 -20 -29 0 -17 82 -94 101 -94 14 0 78 66 87 91 4 10 -78
99 -90 99 -5 0 -17 -9 -28 -20z m81 -67 c18 -5 17 -7 -10 -24 -16 -10 -32 -27
-36 -39 -7 -21 -8 -21 -25 8 -10 17 -29 33 -41 37 -21 7 -21 8 9 21 20 8 34
22 38 39 l6 26 20 -31 c10 -18 28 -34 39 -37z"/>
<path d="M2257 2200 c-27 -10 -54 -24 -62 -30 -11 -9 -26 -8 -64 5 -53 17 -74
13 -102 -21 -7 -9 -60 -48 -116 -86 -82 -55 -103 -73 -103 -92 0 -26 17 -36
60 -36 24 0 28 -5 33 -32 2 -18 4 -33 3 -33 -15 -4 -96 -80 -96 -91 0 -17
-167 -151 -279 -223 -165 -106 -362 -184 -544 -218 -53 -10 -97 -21 -97 -24 0
-13 100 -137 143 -176 209 -193 521 -246 796 -137 276 109 454 365 468 674 l6
114 -49 -36 c-49 -36 -49 -37 -55 -106 -6 -67 -31 -169 -50 -204 -9 -16 -11
-16 -29 2 -11 11 -28 20 -39 20 -26 0 -71 -38 -71 -60 0 -12 -26 -33 -80 -64
-70 -41 -82 -45 -100 -34 -26 16 -69 -5 -87 -43 -7 -14 -24 -31 -38 -39 -21
-11 -27 -11 -43 3 -42 38 -113 11 -128 -48 -5 -20 -26 -36 -95 -71 l-89 -44
-65 26 c-36 14 -65 27 -65 29 0 2 42 19 93 40 126 50 338 161 447 234 49 33
92 56 95 50 11 -16 64 -10 85 11 11 11 20 29 20 39 0 21 116 101 145 101 48 0
74 52 41 80 -21 17 -60 8 -70 -16 -5 -12 -39 -40 -75 -62 -52 -32 -68 -38 -85
-30 -34 15 -75 -6 -92 -47 -10 -26 -34 -48 -83 -80 -124 -80 -284 -165 -429
-226 l-144 -60 -34 26 c-20 15 -33 29 -30 32 2 3 51 21 108 40 178 59 347 146
508 262 47 33 93 61 102 61 22 0 48 27 48 50 0 11 -11 27 -25 36 -23 15 -27
15 -50 0 -14 -9 -25 -25 -25 -36 0 -26 -208 -164 -355 -235 -154 -75 -350
-142 -370 -125 -24 20 -18 28 28 40 243 62 465 177 694 361 140 112 189 142
212 128 15 -10 17 -17 8 -45 -5 -18 -7 -39 -4 -48 14 -37 38 -28 125 46 48 41
101 78 117 82 54 13 65 32 65 106 0 59 3 69 26 91 36 34 84 119 84 150 0 44
-60 52 -143 19z m98 -30 c6 -10 -19 -56 -67 -126 -19 -27 -29 -57 -32 -93 -5
-55 -19 -81 -43 -81 -10 0 -11 5 -5 18 5 9 10 40 11 67 2 46 -1 55 -36 93 -30
33 -48 44 -82 50 -50 8 -60 21 -31 39 15 10 31 10 67 2 43 -10 53 -8 103 15
57 27 104 33 115 16z m-225 -115 c32 -17 60 -61 60 -95 0 -37 -30 -81 -67 -96
-97 -41 -187 77 -122 160 36 46 80 56 129 31z m-175 -32 c-2 -10 -4 -18 -5
-18 -1 0 -4 -11 -6 -24 -6 -35 -10 -36 -48 -16 -36 20 -35 24 14 58 31 22 49
22 45 0z m87 -194 c62 -18 66 -25 28 -61 -31 -29 -34 -30 -41 -12 -3 10 -5 22
-3 25 1 3 -7 17 -19 31 -21 24 -77 44 -77 27 0 -5 -5 -9 -10 -9 -6 0 -3 11 6
25 9 14 14 31 11 39 -12 31 7 23 34 -14 20 -28 40 -42 71 -51z m214 -206 c-5
-71 -42 -203 -57 -203 -5 0 -9 -5 -9 -11 0 -59 -158 -257 -235 -293 -19 -9
-37 -21 -40 -26 -4 -6 -11 -8 -16 -5 -5 4 -9 2 -9 -2 0 -12 -127 -66 -142 -60
-9 3 -6 7 7 11 112 39 256 138 326 227 29 37 31 42 18 66 -8 14 -24 30 -37 36
-16 8 -19 13 -10 19 10 6 10 8 0 8 -11 0 -11 2 0 13 21 21 42 25 57 10 11 -12
17 -11 40 3 38 25 47 42 66 114 9 36 19 72 22 80 8 19 10 29 11 58 1 12 4 22
7 22 3 0 4 -30 1 -67z m-342 -100 c7 -18 -17 -43 -41 -43 -16 0 -17 32 -1 48
17 17 35 15 42 -5z m165 -199 c6 -5 -63 -82 -108 -120 -64 -55 -150 -103 -231
-128 -85 -27 -217 -41 -270 -28 l-35 8 60 31 c54 28 63 29 80 17 10 -8 29 -14
41 -14 29 0 74 37 74 60 0 29 51 52 100 44 44 -7 80 13 80 45 0 9 30 33 73 58
55 32 79 40 102 36 17 -3 32 -7 34 -9z m-1044 -81 c95 -101 109 -113 128 -113
10 0 40 -18 68 -40 59 -46 85 -55 140 -46 32 5 46 2 66 -14 14 -11 34 -20 44
-20 10 0 21 -5 24 -10 4 -6 11 -7 17 -4 6 4 8 2 5 -3 -17 -27 -209 19 -326 78
-94 47 -241 182 -241 221 0 19 24 4 75 -49z m795 23 c0 -18 -15 -36 -31 -36
-22 0 -24 11 -7 28 11 11 38 17 38 8z m-192 -62 c27 -8 28 -24 4 -54 -14 -18
-25 -22 -45 -16 -29 7 -34 25 -15 56 14 21 20 23 56 14z"/>
</g>
</svg>